<?xml version="1.0" encoding="utf-8"?>
<!-- Generator: Adobe Illustrator 24.0.0, SVG Export Plug-In . SVG Version: 6.00 Build 0)  -->
<svg version="1.1" id="Layer_1" xmlns="http://www.w3.org/2000/svg" xmlns:xlink="http://www.w3.org/1999/xlink" x="0px" y="0px"
	 viewBox="0 0 800 800" style="enable-background:new 0 0 800 800;" xml:space="preserve">
<style type="text/css">
	.st0{fill:#D5B860;}
</style>
<path class="st0" d="M705.3,381.3c0,184.1-149.2,333.3-333.3,333.3c-184.1,0-333.3-149.2-333.3-333.3S187.9,48,372,48
	S705.3,197.2,705.3,381.3L705.3,381.3z M597.9,331.8c5.7-3.3,7.6-10.5,4.3-16.2c-0.5-0.9-1.1-1.7-1.8-2.4l-68.6-76.3
	c-16.4-18.2-39.7-28.6-64.2-28.6h-28.6c-15.8,36.9-58.6,54.1-95.5,38.2c-17.2-7.4-30.9-21.1-38.2-38.2h-28.6
	c-24.5,0-47.8,10.4-64.1,28.6l-68.8,76.3c-4.6,4.7-4.5,12.2,0.2,16.8c0.7,0.7,1.5,1.3,2.4,1.8l47,29.6c7,4.2,16.1,2.7,21.4-3.6
	l23.6-29.6v222.7c0,8,6.5,14.5,14.5,14.5h238.8c8,0,14.5-6.5,14.6-14.5V328.5l23.4,29.3c5.3,6.3,14.3,7.9,21.4,3.6L597.9,331.8
	L597.9,331.8z"/>
</svg>
